<?xml version="1.0" encoding="UTF-8" standalone="no"?>
<svg
   xmlns:dc="http://purl.org/dc/elements/1.1/"
   xmlns:cc="http://creativecommons.org/ns#"
   xmlns:rdf="http://www.w3.org/1999/02/22-rdf-syntax-ns#"
   xmlns:svg="http://www.w3.org/2000/svg"
   xmlns="http://www.w3.org/2000/svg"
   xmlns:sodipodi="http://sodipodi.sourceforge.net/DTD/sodipodi-0.dtd"
   xmlns:inkscape="http://www.inkscape.org/namespaces/inkscape"
   width="210mm"
   height="297mm"
   viewBox="0 0 210 297"
   version="1.1"
   id="svg1223"
   inkscape:version="1.0 (4035a4fb49, 2020-05-01)"
   sodipodi:docname="Fluxes.svg">
  <defs
     id="defs1217">
    <marker
       inkscape:isstock="true"
       style="overflow:visible;"
       id="Arrow2Lend"
       refX="0.0"
       refY="0.0"
       orient="auto"
       inkscape:stockid="Arrow2Lend">
      <path
         transform="scale(1.1) rotate(180) translate(1,0)"
         d="M 8.7185878,4.0337352 L -2.2072895,0.016013256 L 8.7185884,-4.0017078 C 6.9730900,-1.6296469 6.9831476,1.6157441 8.7185878,4.0337352 z "
         style="fill-rule:evenodd;stroke-width:0.625;stroke-linejoin:round;stroke:#000000;stroke-opacity:1;fill:#000000;fill-opacity:1"
         id="path898" />
    </marker>
    <inkscape:path-effect
       effect="perspective-envelope"
       up_left_point="82.793549,73.756582"
       up_right_point="112.94619,66.868164"
       down_left_point="82.258106,103.70275"
       down_right_point="113.21346,88.407637"
       id="path-effect2889"
       is_visible="true"
       lpeversion="1"
       deform_type="perspective"
       horizontal_mirror="false"
       vertical_mirror="false"
       overflow_perspective="false" />
    <marker
       inkscape:isstock="true"
       style="overflow:visible"
       id="marker2589-4"
       refX="0"
       refY="0"
       orient="auto"
       inkscape:stockid="Arrow2Lend">
      <path
         transform="matrix(-1.1,0,0,-1.1,-1.1,0)"
         d="M 8.7185878,4.0337352 -2.2072895,0.01601326 8.7185884,-4.0017078 c -1.7454984,2.3720609 -1.7354408,5.6174519 -6e-7,8.035443 z"
         style="fill:#000000;fill-opacity:1;fill-rule:evenodd;stroke:#000000;stroke-width:0.625;stroke-linejoin:round;stroke-opacity:1"
         id="path2347-1" />
    </marker>
  </defs>
  <sodipodi:namedview
     id="base"
     pagecolor="#ffffff"
     bordercolor="#666666"
     borderopacity="1.0"
     inkscape:pageopacity="0.0"
     inkscape:pageshadow="2"
     inkscape:zoom="1.979899"
     inkscape:cx="297.1002"
     inkscape:cy="125.07044"
     inkscape:document-units="mm"
     inkscape:current-layer="layer1"
     inkscape:document-rotation="0"
     showgrid="false"
     inkscape:window-width="1920"
     inkscape:window-height="1017"
     inkscape:window-x="-8"
     inkscape:window-y="-8"
     inkscape:window-maximized="1" />
  <metadata
     id="metadata1220">
    <rdf:RDF>
      <cc:Work
         rdf:about="">
        <dc:format>image/svg+xml</dc:format>
        <dc:type
           rdf:resource="http://purl.org/dc/dcmitype/StillImage" />
        <dc:title />
      </cc:Work>
    </rdf:RDF>
  </metadata>
  <g
     inkscape:label="Lag 1"
     inkscape:groupmode="layer"
     id="layer1">
    <g
       id="g3088"
       transform="matrix(1.5348247,0,0,1.5348247,-49.999998,-77.014383)"
       style="stroke:#4b7fde;stroke-opacity:1">
      <g
         id="g3085"
         style="fill:#55c5ff;fill-opacity:1;stroke:#4b7fde;stroke-width:0.265;stroke-linecap:butt;stroke-linejoin:miter;stroke-miterlimit:4;stroke-dasharray:none;stroke-opacity:1">
        <path
           id="path3079"
           d="m 33.5527,65.0742 17.346,21.111 49.2403,8.6824 -17.3459,-21.111 z"
           style="stroke:#4b7fde;stroke-opacity:1" />
        <path
           id="path3083"
           d="m 63.7072,58.3317 -30.1545,6.7425 49.2404,8.6824 30.1549,-6.7425 z"
           style="stroke:#4b7fde;stroke-opacity:1" />
      </g>
      <path
         style="fill:#55c5ff;fill-opacity:1;stroke:#4b7fde;stroke-width:0.265;stroke-linecap:butt;stroke-linejoin:miter;stroke-miterlimit:4;stroke-dasharray:none;stroke-opacity:1"
         d="M 82.793549,73.756582 100.13947,94.867525 112.948,67.0141 Z"
         id="path2885"
         sodipodi:nodetypes="cccc" />
    </g>
    <path
       style="fill:none;stroke:#3665cb;stroke-width:0.264583px;stroke-linecap:butt;stroke-linejoin:miter;stroke-opacity:1"
       d="M 120.52014,32.355964 82.155561,41.994355 6.9058723,29.243391"
       id="path3470" />
    <path
       style="opacity:1;fill:#aa0000;fill-opacity:1;stroke:#ff2a2a;stroke-width:0.181389;stroke-linejoin:round;stroke-dasharray:0.362778, 0.72555599999999998;stroke-opacity:0;paint-order:stroke markers fill"
       d="M 201.70149,139.67212 C 144.0497,129.88467 83.460418,119.60396 67.058632,116.82609 50.656846,114.04822 34.707849,111.34332 31.616415,110.81521 L 25.995627,109.85499 17.059255,98.963769 C 12.144251,92.973595 8.2707545,88.023254 8.4514849,87.963011 8.9279152,87.804201 290.76642,137.53777 291.02988,137.82715 c 0.26583,0.29197 15.27334,18.62222 15.76943,19.26086 0.19073,0.24554 0.20657,0.43136 0.0352,0.41295 -0.17136,-0.0184 -47.48121,-8.04139 -105.133,-17.82884 z"
       id="path1837"
       transform="scale(0.26458333)" />
    <path
       style="opacity:1;fill:#aa0000;fill-opacity:1;stroke:#ff2a2a;stroke-width:0.181389;stroke-linejoin:round;stroke-dasharray:0.362778, 0.72555599999999998;stroke-opacity:0;paint-order:stroke markers fill"
       d="m 249.7372,128.59901 c -22,-3.89794 -84.75892,-14.97601 -139.46428,-24.61795 C 55.567561,94.339127 10.681451,86.410745 10.526008,86.362434 10.370565,86.31412 48.588439,77.700362 95.454614,67.220745 L 180.66585,48.166897 321.15306,72.939953 c 77.26797,13.625181 140.46082,24.796939 140.42854,24.826124 -0.29579,0.267504 -169.97568,37.974893 -170.77778,37.951373 -0.58664,-0.0172 -19.06662,-3.22051 -41.06662,-7.11844 z"
       id="path1839"
       transform="scale(0.26458333)" />
    <path
       style="opacity:1;fill:#aa0000;fill-opacity:1;stroke:#ff2a2a;stroke-width:0.181389;stroke-linejoin:round;stroke-dasharray:0.362778, 0.72555599999999998;stroke-opacity:0;paint-order:stroke markers fill"
       d="m 309.9364,157.90433 c -0.6373,-0.39387 -17.10119,-20.54221 -16.85548,-20.62756 0.9097,-0.31599 171.27679,-38.27659 171.36944,-38.18394 0.0651,0.06513 -2.2374,5.25254 -5.11673,11.52757 l -5.23515,11.40914 -20.21635,5.06595 c -11.119,2.78628 -43.46897,10.91156 -71.88883,18.05619 -28.41986,7.14463 -51.84547,12.88332 -52.0569,12.75265 z"
       id="path1841"
       transform="scale(0.26458333)" />
    <path
       style="opacity:1;fill:#ff5555;fill-opacity:1;stroke:#ff2a2a;stroke-width:0.181389;stroke-linejoin:round;stroke-dasharray:0.362778, 0.72555599999999998;stroke-opacity:0;paint-order:stroke markers fill"
       d="M 247.51003,232.93849 106.71143,208.07015 67.091786,159.85587 C 45.300982,133.33801 27.581838,111.60079 27.715909,111.55093 c 0.134072,-0.0499 63.318023,10.59767 140.408781,23.66117 111.95581,18.9716 140.28359,23.87751 140.75418,24.37636 0.32404,0.3435 18.39292,22.32098 40.15306,48.83884 21.76015,26.51785 39.80545,48.49553 40.10067,48.83928 0.48507,0.56482 0.47125,0.62092 -0.14361,0.58262 -0.37421,-0.0233 -64.03973,-11.23313 -141.47896,-24.91071 z"
       id="path1845"
       transform="scale(0.26458333)" />
    <path
       style="opacity:1;fill:#ff5555;fill-opacity:1;stroke:#ff2a2a;stroke-width:0.181389;stroke-linejoin:round;stroke-dasharray:0.362778, 0.72555599999999998;stroke-opacity:0;paint-order:stroke markers fill"
       d="m 351.34435,208.5471 c -22.09822,-26.90515 -40.11811,-49.02805 -40.0442,-49.16199 0.17474,-0.31669 141.52964,-35.84142 141.74763,-35.62343 0.1718,0.1718 -60.83568,133.05694 -61.2762,133.47046 -0.13677,0.12838 -18.32902,-21.77989 -40.42723,-48.68504 z"
       id="path1847"
       transform="scale(0.26458333)" />
    <path
       style="opacity:1;fill:#000000;fill-opacity:0;stroke:#ff2a2a;stroke-width:0.181389;stroke-linejoin:round;stroke-dasharray:0.362778, 0.725556;stroke-opacity:0;paint-order:stroke markers fill"
       d="M 286.30442,134.8938 C 195.3804,118.92495 12.90856,86.644733 12.421691,86.442519 11.97209,86.25578 15.245958,85.376676 22.421692,83.757304 34.450706,81.042675 118.8836,62.117793 156.19416,53.773393 l 24.53261,-5.486646 133.14597,23.502761 c 73.23028,12.926518 136.079,24.016747 139.66382,24.64495 3.58482,0.628204 6.51786,1.247932 6.51786,1.377175 0,0.129243 -1.80804,0.642157 -4.01786,1.139814 -41.40779,9.325093 -165.21289,36.741373 -165.59571,36.670693 -0.11433,-0.0211 -1.97572,-0.34886 -4.13643,-0.72834 z"
       id="path1849"
       transform="scale(0.26458333)" />
    <path
       style="opacity:1;fill:#000000;fill-opacity:0;stroke:#ff2a2a;stroke-width:0.181389;stroke-linejoin:round;stroke-dasharray:0.362778, 0.725556;stroke-opacity:0;paint-order:stroke markers fill"
       d="m 303.88944,150.57123 c -9.4803,-11.55169 -10.56393,-12.93401 -10.31777,-13.16176 0.12801,-0.11844 3.92918,-1.03793 8.44703,-2.04331 4.51786,-1.00538 13.27679,-2.96695 19.46429,-4.35903 30.56759,-6.87721 142.64384,-31.750387 142.72021,-31.67402 0.0481,0.04809 -2.20829,5.14057 -5.01416,11.31664 -4.68725,10.31717 -5.18561,11.25269 -6.13596,11.51842 -5.48053,1.5324 -142.38492,35.63521 -143.05618,35.63521 -0.0947,0 -2.84304,-3.25447 -6.10746,-7.23215 z"
       id="path1851"
       transform="scale(0.26458333)" />
    <path
       style="fill:#61a1f9;fill-opacity:1;stroke:#4b7fde;stroke-width:0.12834px;stroke-linecap:butt;stroke-linejoin:miter;stroke-opacity:1"
       d="m 49.002531,36.664159 -1.07657,-3e-6 1.323284,1.721221 1.783071,-1.662676 -1.166284,-0.03513 c 1.61e-4,-0.577729 0.250348,-1.057658 0.717713,-1.27628 3.124869,-1.205038 2.696157,1.915602 2.052213,2.611104 -4.838944,4.744322 -7.117818,-1.914359 -4.934284,-4.273779 l -0.796212,-0.386393 c -2.547763,7.037684 3.265811,9.33613 6.762209,4.999737 0.981942,-1.339445 0.668166,-5.477737 -3.767997,-3.735167 -0.756058,0.398107 -0.985615,1.276282 -0.897143,2.037366 z"
       id="path1857"
       sodipodi:nodetypes="cccccccccccc" />
    <path
       sodipodi:nodetypes="cccccccc"
       id="path7192-0"
       d="m 16.231034,18.799916 4.212104,-1.40825 -2.592444,-3.629507 -0.564008,1.803914 -8.3765583,-2.734419 -0.557608,1.63205 8.4054193,2.569887 z"
       style="fill:#55c5ff;fill-opacity:1;stroke:#4b7fde;stroke-width:0.499999;stroke-linecap:butt;stroke-linejoin:miter;stroke-miterlimit:4;stroke-dasharray:none;stroke-opacity:1" />
    <path
       style="fill:#55c5ff;fill-opacity:1;stroke:#4b7fde;stroke-width:0.499999;stroke-linecap:butt;stroke-linejoin:miter;stroke-miterlimit:4;stroke-dasharray:none;stroke-opacity:1"
       d="m 116.50445,21.395936 2.81037,-3.439017 -4.12949,-1.68565 0.48585,1.826514 -8.54312,2.158435 0.39952,1.677766 8.47972,-2.312976 z"
       id="path7192-0-2"
       sodipodi:nodetypes="cccccccc" />
    <text
       id="text7211-4"
       y="3.0143661"
       x="13.739625"
       style="font-style:normal;font-variant:normal;font-weight:normal;font-stretch:normal;font-size:25.4px;line-height:1.25;font-family:Celias;-inkscape-font-specification:Celias;letter-spacing:0px;word-spacing:0px;fill:#000000;fill-opacity:1;stroke:none;stroke-width:0.264583"
       xml:space="preserve"
       transform="rotate(17.797317)"><tspan
         sodipodi:role="line"
         style="font-size:4.23333px;baseline-shift:sub;stroke-width:0.264583"
         y="3.0143661"
         x="13.739625"
         id="tspan7209-4">F<tspan
   style="font-size:65%;baseline-shift:sub"
   id="tspan2473">in</tspan></tspan></text>
    <text
       xml:space="preserve"
       style="font-style:normal;font-variant:normal;font-weight:normal;font-stretch:normal;font-size:4.23333px;line-height:1.25;font-family:Celias;-inkscape-font-specification:Celias;letter-spacing:0px;word-spacing:0px;fill:#000000;fill-opacity:1;stroke:none;stroke-width:0.264583"
       x="96.148453"
       y="47.170155"
       id="text7211-4-5"
       transform="rotate(-16.241723)"><tspan
         sodipodi:role="line"
         id="tspan7209-4-9"
         x="96.148453"
         y="47.170155"
         style="font-size:4.23333px;baseline-shift:sub;stroke-width:0.264583">-F<tspan
   style="font-size:65%;baseline-shift:sub"
   id="tspan2489">out</tspan></tspan></text>
    <text
       id="text2493"
       y="44.366741"
       x="53.854813"
       style="font-style:normal;font-variant:normal;font-weight:normal;font-stretch:normal;font-size:25.4px;line-height:1.25;font-family:Celias;-inkscape-font-specification:Celias;letter-spacing:0px;word-spacing:0px;fill:#000000;fill-opacity:1;stroke:none;stroke-width:0.264583"
       xml:space="preserve"><tspan
         style="font-size:4.23333px;stroke-width:0.264583"
         y="44.366741"
         x="53.854813"
         id="tspan2491"
         sodipodi:role="line">±F<tspan
   id="tspan2495"
   style="font-size:65%;baseline-shift:sub">mix</tspan></tspan></text>
    <path
       sodipodi:nodetypes="cccccccccccc"
       id="path1857-2"
       d="m 64.548506,14.148596 -1.07657,-3e-6 1.323284,1.721221 1.783071,-1.662676 -1.166283,-0.03513 c 1.6e-4,-0.577729 0.250347,-1.057658 0.717712,-1.27628 3.12487,-1.205038 2.696158,1.915602 2.052214,2.611104 -4.838945,4.744322 -7.117819,-1.914359 -4.934285,-4.273779 L 62.451437,10.84666 c -2.547763,7.037684 3.265812,9.33613 6.762209,4.999737 0.981942,-1.339445 0.668166,-5.477737 -3.767996,-3.735167 -0.756058,0.398107 -0.985615,1.276282 -0.897144,2.037366 z"
       style="fill:#61a1f9;fill-opacity:1;stroke:#4b7fde;stroke-width:0.12834px;stroke-linecap:butt;stroke-linejoin:miter;stroke-opacity:1" />
    <text
       id="text2514"
       y="13.898016"
       x="70.158257"
       style="font-style:normal;font-variant:normal;font-weight:normal;font-stretch:normal;font-size:25.4px;line-height:1.25;font-family:Celias;-inkscape-font-specification:Celias;letter-spacing:0px;word-spacing:0px;fill:#000000;fill-opacity:1;stroke:none;stroke-width:0.264583"
       xml:space="preserve"><tspan
         style="font-size:4.23333px;stroke-width:0.264583"
         y="13.898016"
         x="70.158257"
         id="tspan2512"
         sodipodi:role="line">±F<tspan
   id="tspan2516"
   style="font-size:65%;baseline-shift:sub">atm</tspan></tspan></text>
    <path
       style="fill:#55c5ff;fill-opacity:1;stroke:#4b7fde;stroke-width:0.499999;stroke-linecap:butt;stroke-linejoin:miter;stroke-miterlimit:4;stroke-dasharray:none;stroke-opacity:1"
       d="m 91.428043,19.529369 2.658565,3.557678 2.632991,-3.600206 -1.889787,0.03039 -0.03148,-8.811513 -1.724589,-0.01747 0.19676,8.787308 z"
       id="path7192-0-2-6-8"
       sodipodi:nodetypes="cccccccc" />
    <text
       id="text2550"
       y="9.2207985"
       x="92.608887"
       style="font-style:normal;font-variant:normal;font-weight:normal;font-stretch:normal;font-size:25.4px;line-height:1.25;font-family:Celias;-inkscape-font-specification:Celias;letter-spacing:0px;word-spacing:0px;fill:#000000;fill-opacity:1;stroke:none;stroke-width:0.264583"
       xml:space="preserve"><tspan
         style="font-size:4.23333px;stroke-width:0.264583"
         y="9.2207985"
         x="92.608887"
         id="tspan2548"
         sodipodi:role="line">F<tspan
   id="tspan2552"
   style="font-size:65%;baseline-shift:sub">dep</tspan></tspan></text>
    <text
       xml:space="preserve"
       style="font-style:normal;font-variant:normal;font-weight:normal;font-stretch:normal;font-size:25.4px;line-height:1.25;font-family:Celias;-inkscape-font-specification:Celias;letter-spacing:0px;word-spacing:0px;fill:#000000;fill-opacity:1;stroke:none;stroke-width:0.264583"
       x="44.948238"
       y="23.39337"
       id="text2550-3"><tspan
         sodipodi:role="line"
         id="tspan2548-3"
         x="44.948238"
         y="23.39337"
         style="font-size:4.23333px;stroke-width:0.264583">-F<tspan
   id="tspan2575"
   style="font-size:65%;baseline-shift:sub">photodeg</tspan></tspan></text>
    <text
       id="text2550-3-9"
       y="28.993649"
       x="70.12075"
       style="font-style:normal;font-variant:normal;font-weight:normal;font-stretch:normal;font-size:25.4px;line-height:1.25;font-family:Celias;-inkscape-font-specification:Celias;letter-spacing:0px;word-spacing:0px;fill:#000000;fill-opacity:1;stroke:none;stroke-width:0.264583"
       xml:space="preserve"><tspan
         style="font-size:4.23333px;stroke-width:0.264583"
         y="28.993649"
         x="70.12075"
         id="tspan2548-3-5"
         sodipodi:role="line">-F<tspan
   id="tspan2598"
   style="font-size:65%;baseline-shift:sub">bio</tspan><tspan
   style="font-size:2.75167px;baseline-shift:sub;stroke-width:0.264583"
   id="tspan2575-3">deg</tspan></tspan></text>
    <text
       xml:space="preserve"
       style="font-style:normal;font-variant:normal;font-weight:normal;font-stretch:normal;font-size:25.4px;line-height:1.25;font-family:Celias;-inkscape-font-specification:Celias;letter-spacing:0px;word-spacing:0px;fill:#000000;fill-opacity:1;stroke:none;stroke-width:0.264583"
       x="70.240341"
       y="53.71608"
       id="text2550-3-9-9"><tspan
         sodipodi:role="line"
         id="tspan2548-3-5-1"
         x="70.240341"
         y="53.71608"
         style="font-size:4.23333px;stroke-width:0.264583">-F<tspan
   style="font-size:2.75167px;baseline-shift:sub;stroke-width:0.264583"
   id="tspan2598-2">bio</tspan><tspan
   id="tspan2575-3-0"
   style="font-size:2.75167px;baseline-shift:sub;stroke-width:0.264583">deg</tspan></tspan></text>
    <path
       id="path2253-8-8-2-5"
       style="fill:none;stroke:#000000;stroke-width:0.134379px;stroke-linecap:butt;stroke-linejoin:miter;stroke-opacity:1"
       d="m 44.523827,12.15285 c 1.871616,0.310368 -1.516527,0.944539 0.4483,1.291018 M 44.075431,10.86186 c 1.871595,0.31037 -1.516525,0.944542 0.448301,1.291021 M 43.627035,9.5708722 c 1.871598,0.310376 -1.516535,0.9445428 0.448301,1.2910198 M 43.17864,8.2798841 c 1.871605,0.3103681 -1.516536,0.9445424 0.4483,1.2910193 m 2.690022,7.7460456 c 1.871607,0.310373 -1.516535,0.944543 0.4483,1.291019 m -0.896696,-2.582007 c 1.871587,0.310373 -1.516535,0.944544 0.448301,1.291019 M 45.42017,14.734972 c 1.871598,0.310376 -1.516525,0.94454 0.448396,1.290989 M 44.97187,13.443952 c 1.871606,0.310369 -1.516526,0.94454 0.4483,1.29102" />
    <path
       sodipodi:nodetypes="ccc"
       id="path2318-3"
       d="m 46.939769,19.194315 c 0.03443,0.129854 0.03788,0.138761 0.03788,0.138761 l 0.140067,0.313629"
       style="fill:none;stroke:#000000;stroke-width:0.136003px;stroke-linecap:butt;stroke-linejoin:miter;stroke-opacity:1;marker-end:url(#marker2589-4)" />
  </g>
</svg>
